<svg id="Layer_4" data-name="Layer 4" xmlns="http://www.w3.org/2000/svg" viewBox="0 0 177.54 211.52"><defs><style>.cls-1{fill:#fff;stroke:#0d2d6c;stroke-miterlimit:10;}.cls-2{fill:#002169;}</style></defs><title>Rice_Owl_Flat_280_Blue</title><path class="cls-1" d="M246.47,247.14l-.34-1.09c-2.87-9-4.55-19.12-6.5-30.79-2.66-15.95-5.68-34-12.67-54.58-5.19-15.25-15.14-28.37-27.63-36.65a2,2,0,0,1-.47-2.84A39.79,39.79,0,0,0,140,68a1.93,1.93,0,0,1-2.68,0,39.78,39.78,0,1,0-52,60.1,2.54,2.54,0,0,1,.93,2.4,86.89,86.89,0,0,0,38.53,87.05l0,0A104,104,0,0,0,139,229.79a2.05,2.05,0,0,1,.7,2.44,98.94,98.94,0,0,1-7.63,14.92,8.86,8.86,0,0,1-7.58,4.13h-3.85a10.11,10.11,0,0,0-9.45,6.44l-1.69,4.36a3.88,3.88,0,0,0,.4,3.63,3.93,3.93,0,0,0,3.25,1.73H161.9a8,8,0,0,0,2.18-.51,14.81,14.81,0,0,0,1.6-.64,3.67,3.67,0,0,1,1.56-.36,3.62,3.62,0,0,1,1.48.32,10.21,10.21,0,0,0,1.15.46,12.67,12.67,0,0,0,4.26.73H176a5.33,5.33,0,0,0,3.76-1.49,5.19,5.19,0,0,0,1.4-5.07l-.89-3.41a8.3,8.3,0,0,0-4.07-5.17.81.81,0,0,1-.3-1.17c1.06-1.61,2.08-3.28,3.07-5v0a1.6,1.6,0,0,1,2.07-.65,164.07,164.07,0,0,0,25.49,9.57,1.92,1.92,0,0,0,2.09-.75h0c1.82-2.56,3.59-5.3,5.24-8.15.83-1.42,1.6-2.87,2.34-4.32a1.71,1.71,0,0,1,2.22-.8,104.47,104.47,0,0,0,25.59,7.5l1.14.18A1.22,1.22,0,0,0,246.47,247.14Z" transform="translate(-69.49 -56.42)"/><path class="cls-2" d="M246.47,247.14l-.34-1.09c-2.87-9-4.55-19.12-6.5-30.79-2.66-15.95-5.68-34-12.67-54.58-5.19-15.25-15.14-28.37-27.63-36.65a2,2,0,0,1-.47-2.84A39.79,39.79,0,0,0,140,68a1.93,1.93,0,0,1-2.68,0,39.78,39.78,0,1,0-52,60.1,2.54,2.54,0,0,1,.93,2.4,86.89,86.89,0,0,0,38.53,87.05l0,0A104,104,0,0,0,139,229.79a2.05,2.05,0,0,1,.7,2.44,98.94,98.94,0,0,1-7.63,14.92,8.86,8.86,0,0,1-7.58,4.13h-3.85a10.11,10.11,0,0,0-9.45,6.44l-1.69,4.36a3.88,3.88,0,0,0,.4,3.63,3.93,3.93,0,0,0,3.25,1.73H161.9a8,8,0,0,0,2.18-.51,14.81,14.81,0,0,0,1.6-.64,3.67,3.67,0,0,1,1.56-.36,3.62,3.62,0,0,1,1.48.32,10.21,10.21,0,0,0,1.15.46,12.67,12.67,0,0,0,4.26.73H176a5.33,5.33,0,0,0,3.76-1.49,5.19,5.19,0,0,0,1.4-5.07l-.89-3.41a8.3,8.3,0,0,0-4.07-5.17.81.81,0,0,1-.3-1.17c1.06-1.61,2.08-3.28,3.07-5v0a1.6,1.6,0,0,1,2.07-.65,164.07,164.07,0,0,0,25.49,9.57,1.92,1.92,0,0,0,2.09-.75h0c1.82-2.56,3.59-5.3,5.24-8.15.83-1.42,1.6-2.87,2.34-4.32a1.71,1.71,0,0,1,2.22-.8,104.47,104.47,0,0,0,25.59,7.5l1.14.18A1.22,1.22,0,0,0,246.47,247.14Zm-46-136.21a36.08,36.08,0,0,1-14.94,16.83A1.71,1.71,0,0,1,183,126.1a27,27,0,0,0-2-12.87,7.38,7.38,0,0,1,.58-6.56,19.26,19.26,0,0,0,2.69-8.21,2.14,2.14,0,0,1,2.58-1.87,23,23,0,0,1,12.45,6.85A7,7,0,0,1,200.47,110.93ZM193.1,74.12h0a5.14,5.14,0,0,1,3.93,2.2,35.71,35.71,0,0,1,6.37,20.39c0,.51,0,1,0,1.54a1.6,1.6,0,0,1-2.69,1.09,28.05,28.05,0,0,0-14.19-6.75A4.63,4.63,0,0,1,183,89.71a19.6,19.6,0,0,0-4.2-6.51,2.89,2.89,0,0,1,.29-4.3A20.54,20.54,0,0,1,193.1,74.12Zm-54.47,27.26a11.57,11.57,0,0,1,11.57,11.56A11.46,11.46,0,0,1,149,118l-9.12,19.18a1.4,1.4,0,0,1-2.53,0l-9.11-19.16v0a11.32,11.32,0,0,1-1.18-5.09A11.57,11.57,0,0,1,138.63,101.38Zm-26.39,10.78a15.45,15.45,0,1,1,15.45-15.45A15.47,15.47,0,0,1,112.24,112.16Zm37.34-15.45A15.45,15.45,0,1,1,165,112.16,15.47,15.47,0,0,1,149.58,96.71ZM169,62a19,19,0,0,1,8.39.15,35.65,35.65,0,0,1,11.32,5.59,1.58,1.58,0,0,1-.66,2.82,25.78,25.78,0,0,0-12,5.78,7.57,7.57,0,0,1-6.6,1.54,19.65,19.65,0,0,0-4.5-.53,19.22,19.22,0,0,0-11.76,4,1.22,1.22,0,0,1-1.89-1.34C154.45,70.5,160.83,63.54,169,62Zm-46.82,1a35.84,35.84,0,0,1,14.94,10.46,1.94,1.94,0,0,0,2.94,0A35.9,35.9,0,0,1,155,63a1,1,0,0,1,1.07,1.7,31.41,31.41,0,0,0-5.91,8.09,46,46,0,0,0-4.6,23.91,1.58,1.58,0,0,1-2.08,1.6,15.5,15.5,0,0,0-9.77,0,1.58,1.58,0,0,1-2.08-1.6,46,46,0,0,0-4.61-23.91,31.38,31.38,0,0,0-5.9-8.09A1,1,0,0,1,122.22,63ZM88.51,67.77a35.65,35.65,0,0,1,11.32-5.59,19,19,0,0,1,8.4-.15c8.21,1.51,14.58,8.47,17.66,18A1.22,1.22,0,0,1,124,81.39a19.22,19.22,0,0,0-11.76-4,19.59,19.59,0,0,0-4.5.53,7.57,7.57,0,0,1-6.6-1.54,25.82,25.82,0,0,0-12-5.78A1.58,1.58,0,0,1,88.51,67.77ZM73.88,98.25c0-.51,0-1,0-1.54a35.7,35.7,0,0,1,6.36-20.39,5.18,5.18,0,0,1,3.93-2.2h0a20.5,20.5,0,0,1,14,4.78,2.89,2.89,0,0,1,.3,4.3,19.29,19.29,0,0,0-4.2,6.51,4.65,4.65,0,0,1-3.47,2.88,28.09,28.09,0,0,0-14.19,6.75A1.6,1.6,0,0,1,73.88,98.25Zm2.91,12.68A7,7,0,0,1,78,103.44,23,23,0,0,1,90.37,96.6a2.17,2.17,0,0,1,1.52.23l0,0A2.13,2.13,0,0,1,93,98.49a19.08,19.08,0,0,0,2.68,8.17,7.44,7.44,0,0,1,.59,6.57,27.06,27.06,0,0,0-2,12.87,1.72,1.72,0,0,1-2.57,1.67A36.15,36.15,0,0,1,76.79,110.93Zm30.09,85.21c-.57-.72-1.13-1.45-1.68-2.2a82.35,82.35,0,0,1-16.27-49.39,80.81,80.81,0,0,1,.72-10.79,1.75,1.75,0,0,1,2.52-1.35l.06,0a6.28,6.28,0,0,1,3.51,6c-.13,2.15-.21,4.35-.21,6.11a105.25,105.25,0,0,0,12.83,50.6A.89.89,0,0,1,106.88,196.14Zm30.83,61.58-1,2.55-.71,1.82h0a2.26,2.26,0,0,1-2.09,1.43l-9.14,0a.47.47,0,0,1-.44-.64l1.1-2.84a1,1,0,0,0-.55-1.26,2.89,2.89,0,0,0-3.74,1.64l-.66,1.68h0a2.12,2.12,0,0,1-2,1.4h-4.26a.8.8,0,0,1-.75-1.1l1.27-3.26a6.24,6.24,0,0,1,5.85-4h3.85a12.71,12.71,0,0,0,10.86-5.94,103.15,103.15,0,0,0,7.8-15.23,1,1,0,0,1,1.39-.44c1.87,1.18,3.8,2.31,5.76,3.38a2.51,2.51,0,0,1,1,3.33,99.17,99.17,0,0,1-5.86,9.86,6,6,0,0,1-2.53,2.1A10.15,10.15,0,0,0,137.71,257.72ZM163,235.64a1.7,1.7,0,0,1,.68,2.22,99.58,99.58,0,0,1-5.09,9.29,8.89,8.89,0,0,1-7.59,4.13.92.92,0,0,1-.77-1.41,104.8,104.8,0,0,0,8-15.35,1.29,1.29,0,0,1,1.88-.59Q161.57,234.8,163,235.64Zm-2.48-6.91c.38-1.08.74-2.16,1.08-3.25a.8.8,0,0,1,1.29-.37q2,1.68,4.11,3.28a.91.91,0,0,1,.3,1.05c-.33.9-.67,1.79-1,2.68a.73.73,0,0,1-1,.35q-2.22-1.28-4.33-2.63A1,1,0,0,1,160.53,228.73Zm18,10q-1.37,2.77-2.92,5.48c-1.59,2.73-3.29,5.38-5.06,7.87l-1.6,2.32a.47.47,0,0,0,.38.73h2.86a4.48,4.48,0,0,1,4.33,3.33l.89,3.4a1.32,1.32,0,0,1-.24,1.17,1.34,1.34,0,0,1-1.08.53h-1.94a8.8,8.8,0,0,1-3-.5,9.5,9.5,0,0,1-2.27-1.15,2.63,2.63,0,0,0-.92-.41,2.84,2.84,0,0,0-2.17.32l-.75.44a9.21,9.21,0,0,1-3.46,1.16l-.45.06a12.22,12.22,0,0,1-1.35.08H152a1,1,0,0,1-.92-1.35l.89-2.27a.88.88,0,0,0-.5-1.13,3,3,0,0,0-3.87,1.69l-.45,1.19a2.83,2.83,0,0,1-2.68,1.85h-4a.63.63,0,0,1-.52-.28.64.64,0,0,1-.08-.6l1.63-4.19a5.23,5.23,0,0,1,4.88-3.33H151a12.71,12.71,0,0,0,10.86-5.94,104.54,104.54,0,0,0,8.56-17.13.79.79,0,0,1,1.19-.37q2.87,1.94,5.88,3.71A2.54,2.54,0,0,1,178.51,238.74Zm1.8-6.16a105.55,105.55,0,0,1-9.3-6,103.89,103.89,0,0,1-8.73-7.15A101.51,101.51,0,0,1,143.82,197a1,1,0,0,0-1.32-.33,2.86,2.86,0,0,0-1,4,105.54,105.54,0,0,0,13.39,17,9.22,9.22,0,0,1,2.06,9.48c-.77,2.21-1.62,4.38-2.55,6.53a.88.88,0,0,1-1.22.43,100.78,100.78,0,0,1-53.83-89.55c0-1.69.09-3.87.21-6a2.83,2.83,0,0,1,3.3-2.62,40.27,40.27,0,0,0,6.88.59H124a1.09,1.09,0,0,0,1.1-1.06,2.76,2.76,0,0,0-2.76-2.79h-12.6a35.56,35.56,0,0,1-5.4-.41,7.35,7.35,0,0,1-6.22-6.4,22.88,22.88,0,0,1,1.45-10.53,2.66,2.66,0,0,1,3.74-1.44,19.3,19.3,0,0,0,17.78,0,1.5,1.5,0,0,1,1.41,0l0,0a1.53,1.53,0,0,1,.76,1.12,14.87,14.87,0,0,0,1.43,4.7L134.41,140a4.68,4.68,0,0,0,8.45,0l9.63-20.25a15.4,15.4,0,0,0,1.43-4.7,1.57,1.57,0,0,1,.53-1,1.5,1.5,0,0,1,1.64-.17,19.3,19.3,0,0,0,17.82,0,2.68,2.68,0,0,1,3.75,1.44,23,23,0,0,1,1.47,10.33,7.43,7.43,0,0,1-6.25,6.6,35.53,35.53,0,0,1-5.39.41h-12.6a2.75,2.75,0,0,0-2.76,2.79,1.08,1.08,0,0,0,1.1,1.06h.61a1.61,1.61,0,0,1,1.6,1.72c-.14,2.09-.22,4.2-.22,6.34a105.26,105.26,0,0,0,25.52,68.71c.33.39.66.76,1,1.14a11.11,11.11,0,0,1,2.3,10.89q-1.16,3.5-2.55,6.89A.82.82,0,0,1,180.31,232.58Zm30.84,10.49c-.22.39-.43.77-.66,1.15-1.2,2.07-2.47,4.09-3.77,6a1.22,1.22,0,0,1-1.34.48,162.21,162.21,0,0,1-23.21-8.95.77.77,0,0,1-.34-1,106.27,106.27,0,0,0,6.22-15.31,2.38,2.38,0,0,1,3.81-1.09,106.44,106.44,0,0,0,17.44,12.2A4.8,4.8,0,0,1,211.15,243.07Zm29.38.93a101.49,101.49,0,0,1-81.45-99.45c0-1.78.06-3.55.16-5.31a2.93,2.93,0,0,1,2.92-2.75h5a40.38,40.38,0,0,0,25.13-8.69,4.59,4.59,0,0,1,5.43-.19c11.53,7.83,20.72,20.08,25.56,34.31A274.18,274.18,0,0,1,233.24,201a.64.64,0,0,1-.92.69,64.43,64.43,0,0,1-20.11-15.57,63.65,63.65,0,0,1-13.38-25.57,2.65,2.65,0,0,0-3.09-1.91h0a1.27,1.27,0,0,0-1,1.54,67.37,67.37,0,0,0,14.53,28.46,68.11,68.11,0,0,0,21.18,16.42,8.46,8.46,0,0,1,4.57,6.17c.27,1.57.53,3.13.78,4.66.39,2.34.77,4.61,1.15,6.83a.64.64,0,0,1-.82.72,82.68,82.68,0,0,1-53.56-51.53,2.63,2.63,0,0,0-3.26-1.62,1.28,1.28,0,0,0-.82,1.62,86.45,86.45,0,0,0,54.61,54.6,8.65,8.65,0,0,1,5.75,6.46c.72,3.54,1.49,7,2.39,10.23A.63.63,0,0,1,240.53,244Z" transform="translate(-69.49 -56.42)"/><path class="cls-2" d="M113.36,104.49A10.16,10.16,0,0,1,106.5,88.2a.54.54,0,0,0-.74-.75,11.3,11.3,0,1,0,15.74,15.74.54.54,0,0,0-.76-.74A10.17,10.17,0,0,1,113.36,104.49Z" transform="translate(-69.49 -56.42)"/><path class="cls-2" d="M166.15,104.49a10.16,10.16,0,0,1-6.86-16.29.54.54,0,0,0-.74-.75,11.3,11.3,0,1,0,15.74,15.74.54.54,0,0,0-.76-.74A10.17,10.17,0,0,1,166.15,104.49Z" transform="translate(-69.49 -56.42)"/></svg>